PathFileType	4	(X/Y/Z)	7_coords_data.trc
DataRate	CameraRate	NumFrames	NumMarkers	Units	OrigDataRate	OrigDataStartFrame	OrigNumFrames
30.0	30.0	5	21	m	30.0	21	73
Frame#	Time	THUMB_TIP	THUMB_IP	THUMB_MCP	THUMB_CMC	INDEX_TIP	INDEX_DIP	INDEX_PIP	INDEX_MCP	MIDDLE_TIP	MIDDLE_DIP	MIDDLE_PIP	MIDDLE_MCP	RING_TIP	RING_DIP	RING_PIP	RING_MCP	PINKY_TIP	PINKY_DIP	PINKY_PIP	PINKY_MCP	WRIST
X1	Y1	Z1	X2	Y2	Z2	X3	Y3	Z3	X4	Y4	Z4	X5	Y5	Z5	X6	Y6	Z6	X7	Y7	Z7	X8	Y8	Z8	X9	Y9	Z9	X10	Y10	Z10	X11	Y11	Z11	X12	Y12	Z12	X13	Y13	Z13	X14	Y14	Z14	X15	Y15	Z15	X16	Y16	Z16	X17	Y17	Z17	X18	Y18	Z18	X19	Y19	Z19	X20	Y20	Z20	X21	Y21	Z21
19	0.6666666666666637	0.5037145376222313	-0.017161656260571423	-0.16595602836986506	0.49367600837578174	-0.020230412118721675	-0.14551561085819842	0.47226434849452525	-0.024861359855273713	-0.12340418521011526	0.4693644083027032	-0.029036001547868007	-0.079086550868667	0.5676399813839583	0.03236169944070322	-0.15935495791891274	0.5513696859531647	0.034554845082746644	-0.15170854707541953	0.5290837637815271	0.033585667156870946	-0.1401150920206179	0.496692628742593	0.01622504321910556	-0.11859628161248836	0.5939409109507375	0.0382659752731791	-0.13198565689894287	0.5772028552332937	0.03881646115643833	-0.12509113326840254	0.5501253083322509	0.03751904823544605	-0.11438913702778142	0.5109954080370116	0.022930465002393263	-0.0985092106067641	0.6008766556698577	0.01660951065071159	-0.11174298939756655	0.5848225682819848	0.019496401621101	-0.1040662623171224	0.5622699917681062	0.022360663175784112	-0.09389978419871692	0.5242202618426576	0.01885298194536822	-0.08068482831584628	0.5969357782931473	-0.026271894054274103	-0.08061182004583783	0.5821003030348693	-0.019095901305411833	-0.0759843151102057	0.5636306900663925	-0.010658684819469744	-0.07064588895973561	0.5305980930829749	0.002304132015715332	-0.06418861653025343	0.4622830810018609	-0.023011742144276925	-0.051989820119430985
20	0.6999999999999968	0.5026869291951008	-0.01780302393125488	-0.16647367373486627	0.49293204489713693	-0.02070268272599307	-0.14587187257070983	0.4717459667367445	-0.025017440657419066	-0.12348096021379729	0.46915346911764233	-0.029070896791930423	-0.0791330352402369	0.567628957074894	0.03290480147920405	-0.15960058924732717	0.5513753126129962	0.03490749479330146	-0.151867009145208	0.5291571393416423	0.0336887069985522	-0.14016755762834332	0.4969919696634154	0.016017004946253133	-0.11856318538229904	0.5941805843098538	0.03920289012535161	-0.13168740832450382	0.5774175990001831	0.03942842020397552	-0.12483529480447231	0.5503354825469087	0.03769375137988917	-0.11420705682811749	0.5113372613229824	0.022551387966880276	-0.09852281337686775	0.6014548419370975	0.017084090300059085	-0.11150095348244732	0.5853089880918636	0.019647666311731093	-0.10390230349440843	0.5626661131226913	0.02208775543448227	-0.0938262845780174	0.524594383245669	0.01823317614227926	-0.08077230293825843	0.597236270815086	-0.027230343888834274	-0.08042347515911574	0.5822855157132187	-0.020200385795694276	-0.07594523766064781	0.5637675718401196	-0.011781877688024966	-0.07074653638495831	0.5308542738241173	0.0015156043859585466	-0.06436098744990859	0.4622830810018609	-0.023011742144276925	-0.05198982011943093
21	0.7333333333333302	0.5020153675143679	-0.018330514620279792	-0.16681714231402422	0.4924403494930665	-0.021085665150885946	-0.14611139008317175	0.4714028379122843	-0.025149228044079708	-0.12353417672320377	0.469000583735365	-0.029095191274472132	-0.07916584850302105	0.5677216190359315	0.03311811469793169	-0.15970966250880314	0.5514818375841737	0.03501791124868936	-0.15192119208998062	0.5292997006455358	0.033673539557937504	-0.1401672438770344	0.49724221567860605	0.01584017749935307	-0.1185356709041201	0.5944089200082021	0.03982419569448903	-0.1314163150742118	0.577628190331753	0.03981865179733113	-0.12460404079970205	0.5505453707276537	0.03776232078494035	-0.11403512718195996	0.511630199934317	0.02223915741644089	-0.098517756201014	0.6018774467039065	0.017432982641647388	-0.11134045648898983	0.5856749478843991	0.019771434420790768	-0.10378991509909713	0.5629783951601097	0.021880715562842434	-0.09376008925328416	0.5248980301217461	0.01773668846737375	-0.08082047287655175	0.5974360461025512	-0.028005998339929006	-0.08028210454729845	0.5823986542613487	-0.021090397569861974	-0.0759173236131408	0.5638478849714079	-0.012682718687672678	-0.07081909710136475	0.531047937931721	0.0009098368490401132	-0.06447170715154105	0.4622830810018609	-0.023011742144276925	-0.051989820119430985
22	0.7666666666666633	0.5017463968750655	-0.01871977746513609	-0.16696378218678737	0.4922339582588612	-0.021363870529838902	-0.14621475128319728	0.4712420414543175	-0.025243031800153304	-0.12356278587818209	0.4689044090045844	-0.029116652741401294	-0.0791846320710049	0.5679053979861662	0.033098463987734084	-0.15966942864498712	0.5516704505449325	0.03496962683291582	-0.1518639670194849	0.5294909969784197	0.0335925055633296	-0.14010874649838195	0.4974329299743534	0.015740931709289807	-0.11849306365243512	0.5946086332733869	0.04016906277104204	-0.13115957681548351	0.5778145416641806	0.04002355065411467	-0.1243818697367281	0.5507254711522829	0.03777961332666324	-0.11386728205713231	0.5118440717510249	0.022043460456688924	-0.098480333222076	0.6021316413057403	0.01766550859870719	-0.11123700113768037	0.585906088779281	0.019879870143841405	-0.10369856309266462	0.5631885943329167	0.02180089376672334	-0.09367832889780986	0.5251159754329632	0.017418207165670996	-0.0807946732731098	0.5975144821487286	-0.028590466424305294	-0.08017324258882086	0.5824401557518011	-0.021718291546208746	-0.07586767687410295	0.5638857388597562	-0.013286460458043381	-0.0708228917154613	0.5311791426073724	0.000528311006152582	-0.06447355301166013	0.462283081001861	-0.023011742144276925	-0.05198982011943093
23	0.7999999999999965	0.5019112534863627	-0.018937824584187912	-0.16690475684182376	0.49232704921787296	-0.021513069924496975	-0.14618010630250033	0.4712813180271216	-0.02528175884995687	-0.12355944799135143	0.4689022417740091	-0.029132794832429032	-0.0791815309825104	0.5681722281352289	0.032817272874834824	-0.1594978147511033	0.5519341934067417	0.034741519289317124	-0.1517117050747121	0.5297274477699079	0.033442535517855254	-0.13999919371367403	0.49756400818352386	0.015712050649763776	-0.11844045640567269	0.594782511149408	0.04013311311658885	-0.1309818776191206	0.5779799792959956	0.03996945507813665	-0.12422553694080135	0.5508828799156978	0.037697080398334415	-0.1137377789111334	0.5119731453263509	0.02196421410073357	-0.09841924787031903	0.6021869713442927	0.017703898499807136	-0.1112681548130855	0.5859791055712469	0.019926610603546613	-0.10369421013499175	0.5632813059753166	0.02181962731353959	-0.09362413763084981	0.5252300837125642	0.017287164251206244	-0.08072909606832668	0.5974627987526056	-0.0289767729848307	-0.08019679953142972	0.5824068743384307	-0.022067175043543386	-0.07588674195357648	0.5638768298171135	-0.013588674806637613	-0.07083060679213227	0.5312472597209932	0.0003686424873251548	-0.06439726393650708	0.4622830810018608	-0.023011742144276925	-0.05198982011943093
